<svg xmlns="http://www.w3.org/2000/svg" viewBox="0 0 64 64">
  <defs>
    <linearGradient id="pin" x1="0" x2="1" y1="0" y2="1">
      <stop offset="0%" stop-color="#f6d365"/>
      <stop offset="100%" stop-color="#b7791f"/>
    </linearGradient>
    <linearGradient id="bus" x1="0" x2="0" y1="0" y2="1">
      <stop offset="0%" stop-color="#fffdf5"/>
      <stop offset="100%" stop-color="#f3e6b3"/>
    </linearGradient>
  </defs>
  <path d="M32 4C19.3 4 9 14.3 9 27c0 15.8 18.1 31.7 21.2 34.3a2.6 2.6 0 0 0 3.6 0C36.9 58.7 55 42.8 55 27 55 14.3 44.7 4 32 4z" fill="url(#pin)"/>
  <circle cx="32" cy="27" r="16" fill="#4a2f10" opacity="0.95"/>
  <rect x="23.5" y="18.2" width="17" height="18" rx="3.8" fill="url(#bus)"/>
  <rect x="26.3" y="20.8" width="11.4" height="6.8" rx="1.8" fill="#7a5a14"/>
  <rect x="28.1" y="30.2" width="7.8" height="1.8" rx="0.9" fill="#936d16"/>
  <circle cx="27.7" cy="34.2" r="1.5" fill="#936d16"/>
  <circle cx="36.3" cy="34.2" r="1.5" fill="#936d16"/>
  <path d="M32 40.5l-4.7 5.4h9.4z" fill="#f6d783"/>
  <circle cx="49.2" cy="13.2" r="8.4" fill="#d4a430" stroke="#fff0c0" stroke-width="1.5"/>
  <text x="49.2" y="16.4" text-anchor="middle" font-size="8.6" font-family="Segoe UI, Arial, sans-serif" font-weight="700" fill="#3a2206">G</text>
</svg>
